<svg width="33" height="53" viewBox="0 0 33 53" fill="none" xmlns="http://www.w3.org/2000/svg">
<path d="M16.471 52.8572L5.69129 41.1874C2.47159 37.9439 0.625 33.3446 0.625 28.5738C0.625 19.0835 7.72727 11.3609 16.4552 11.3609C25.1831 11.3609 32.2854 19.0835 32.2854 28.5738C32.2854 33.5334 30.3283 38.2356 26.8876 41.5135L16.471 52.8572ZM16.471 15.3938C9.79482 15.3938 4.34975 21.2973 4.34975 28.5738C4.34975 32.2291 5.7702 35.7644 8.24811 38.2528L8.29546 38.3043L16.471 47.1596L24.4255 38.5102C27.077 36.0047 28.5922 32.3836 28.5922 28.5738C28.5922 21.2973 23.1471 15.3938 16.471 15.3938Z" fill="#E1E1E1"/>
<path d="M16.471 41.4963L5.69129 29.8265C2.47159 26.583 0.625 21.9838 0.625 17.2129C0.625 7.72263 7.72727 0 16.4552 0C25.1831 0 32.2854 7.72263 32.2854 17.2129C32.2854 22.1725 30.3283 26.8748 26.8876 30.1526L16.471 41.4963ZM16.471 4.03293C9.79482 4.03293 4.34975 9.93646 4.34975 17.2129C4.34975 20.8683 5.7702 24.4035 8.24811 26.8919L8.29546 26.9434L16.471 35.7987L24.4255 27.1494C27.077 24.6438 28.5922 21.0227 28.5922 17.2129C28.5922 9.93646 23.1471 4.03293 16.471 4.03293Z" fill="#E1E1E1"/>
</svg>
